HIERARCHY
ROOT hip
{
  OFFSET 0 0 0
  CHANNELS 6 Xposition Yposition Zposition Zrotation Yrotation Xrotation
  JOINT abdomen
  {
    OFFSET 0 20.6881 -0.73152
    CHANNELS 3 Zrotation Xrotation Yrotation
    JOINT chest
    {
      OFFSET 0 11.7043 -0.48768
      CHANNELS 3 Zrotation Xrotation Yrotation
      JOINT neck
      {
        OFFSET 0 22.1894 -2.19456
        CHANNELS 3 Zrotation Xrotation Yrotation
        JOINT head
        {
          OFFSET -0.24384 7.07133 1.2192
          CHANNELS 3 Zrotation Xrotation Yrotation
          JOINT leftEye
          {
            OFFSET 4.14528 8.04674 8.04672
            CHANNELS 3 Zrotation Xrotation Yrotation
            End Site
            {
              OFFSET 1 0 0
            }
          }
          JOINT rightEye
          {
            OFFSET -3.6576 8.04674 8.04672
            CHANNELS 3 Zrotation Xrotation Yrotation
            End Site
            {
              OFFSET 1 0 0
            }
          }
        }
      }
      JOINT rCollar
      {
        OFFSET -2.68224 19.2634 -4.8768
        CHANNELS 3 Zrotation Xrotation Yrotation
        JOINT rShldr
        {
          OFFSET -8.77824 -1.95073 1.46304
          CHANNELS 3 Zrotation Xrotation Yrotation
          JOINT rForeArm
          {
            OFFSET -28.1742 -1.7115 0.48768
            CHANNELS 3 Zrotation Xrotation Yrotation
            JOINT rHand
            {
              OFFSET -22.5879 0.773209 7.07136
              CHANNELS 3 Zrotation Xrotation Yrotation
              JOINT rThumb1
              {
                OFFSET -1.2192 -0.487915 3.41376
                CHANNELS 3 Zrotation Xrotation Yrotation
                JOINT rThumb2
                {
                  OFFSET -3.37035 -0.52449 3.41376
                  CHANNELS 3 Zrotation Xrotation Yrotation
                  End Site
                  {
                    OFFSET -1.78271 -1.18214 1.43049
                  }
                }
              }
              JOINT rIndex1
              {
                OFFSET -7.75947 0.938293 5.60832
                CHANNELS 3 Zrotation Xrotation Yrotation
                JOINT rIndex2
                {
                  OFFSET -2.54057 -0.884171 1.56538
                  CHANNELS 3 Zrotation Xrotation Yrotation
                  End Site
                  {
                    OFFSET -1.62519 -0.234802 1.16502
                  }
                }
              }
              JOINT rMid1
              {
                OFFSET -8.24714 1.18213 3.41376
                CHANNELS 3 Zrotation Xrotation Yrotation
                JOINT rMid2
                {
                  OFFSET -3.10165 -0.590103 1.0647
                  CHANNELS 3 Zrotation Xrotation Yrotation
                  End Site
                  {
                    OFFSET -2.48547 -0.328903 0.83742
                  }
                }
              }
              JOINT rRing1
              {
                OFFSET -8.82822 0.546677 1.51678
                CHANNELS 3 Zrotation Xrotation Yrotation
                JOINT rRing2
                {
                  OFFSET -2.60934 -0.819778 -0.0198488
                  CHANNELS 3 Zrotation Xrotation Yrotation
                  End Site
                  {
                    OFFSET -2.33842 -0.294052 0.168128
                  }
                }
              }
              JOINT rPinky1
              {
                OFFSET -8.27202 -0.0477905 -0.4584
                CHANNELS 3 Zrotation Xrotation Yrotation
                JOINT rPinky2
                {
                  OFFSET -1.82734 -0.647385 -0.700984
                  CHANNELS 3 Zrotation Xrotation Yrotation
                  End Site
                  {
                    OFFSET -1.69225 -0.51767 -0.607171
                  }
                }
              }
            }
          }
        }
      }
      JOINT lCollar
      {
        OFFSET 2.68224 19.2634 -4.8768
        CHANNELS 3 Zrotation Xrotation Yrotation
        JOINT lShldr
        {
          OFFSET 8.77824 -1.95073 1.46304
          CHANNELS 3 Zrotation Xrotation Yrotation
          JOINT lForeArm
          {
            OFFSET 28.1742 -1.7115 0.48768
            CHANNELS 3 Zrotation Xrotation Yrotation
            JOINT lHand
            {
              OFFSET 22.5879 0.773209 7.07136
              CHANNELS 3 Zrotation Xrotation Yrotation
              JOINT lThumb1
              {
                OFFSET 1.2192 -0.487915 3.41376
                CHANNELS 3 Zrotation Xrotation Yrotation
                JOINT lThumb2
                {
                  OFFSET 3.37035 -0.52449 3.41376
                  CHANNELS 3 Zrotation Xrotation Yrotation
                  End Site
                  {
                    OFFSET 1.78271 -1.18214 1.43049
                  }
                }
              }
              JOINT lIndex1
              {
                OFFSET 7.75947 0.938293 5.60832
                CHANNELS 3 Zrotation Xrotation Yrotation
                JOINT lIndex2
                {
                  OFFSET 2.54057 -0.884171 1.56538
                  CHANNELS 3 Zrotation Xrotation Yrotation
                  End Site
                  {
                    OFFSET 1.62519 -0.234802 1.16502
                  }
                }
              }
              JOINT lMid1
              {
                OFFSET 8.24714 1.18213 3.41376
                CHANNELS 3 Zrotation Xrotation Yrotation
                JOINT lMid2
                {
                  OFFSET 3.10165 -0.590103 1.0647
                  CHANNELS 3 Zrotation Xrotation Yrotation
                  End Site
                  {
                    OFFSET 2.48547 -0.328903 0.83742
                  }
                }
              }
              JOINT lRing1
              {
                OFFSET 8.82822 0.546677 1.51678
                CHANNELS 3 Zrotation Xrotation Yrotation
                JOINT lRing2
                {
                  OFFSET 2.60934 -0.819778 -0.0198488
                  CHANNELS 3 Zrotation Xrotation Yrotation
                  End Site
                  {
                    OFFSET 2.33842 -0.294052 0.168128
                  }
                }
              }
              JOINT lPinky1
              {
                OFFSET 8.27202 -0.0477905 -0.4584
                CHANNELS 3 Zrotation Xrotation Yrotation
                JOINT lPinky2
                {
                  OFFSET 1.82734 -0.647385 -0.700984
                  CHANNELS 3 Zrotation Xrotation Yrotation
                  End Site
                  {
                    OFFSET 1.69225 -0.51767 -0.607171
                  }
                }
              }
            }
          }
        }
      }
    }
  }
  JOINT rButtock
  {
    OFFSET -8.77824 4.35084 1.2192
    CHANNELS 3 Zrotation Xrotation Yrotation
    JOINT rThigh
    {
      OFFSET 0 -1.70687 -2.19456
      CHANNELS 3 Zrotation Xrotation Yrotation
      JOINT rShin
      {
        OFFSET 0 -36.8199 0.73152
        CHANNELS 3 Zrotation Xrotation Yrotation
        JOINT rFoot
        {
          OFFSET 0.73152 -45.1104 -5.12064
          CHANNELS 3 Zrotation Xrotation Yrotation
          End Site
          {
            OFFSET -1.1221 -3.69964 12.103
          }
        }
      }
    }
  }
  JOINT lButtock
  {
    OFFSET 8.77824 4.35084 1.2192
    CHANNELS 3 Zrotation Xrotation Yrotation
    JOINT lThigh
    {
      OFFSET 0 -1.70687 -2.19456
      CHANNELS 3 Zrotation Xrotation Yrotation
      JOINT lShin
      {
        OFFSET 0 -36.8199 0.73152
        CHANNELS 3 Zrotation Xrotation Yrotation
        JOINT lFoot
        {
          OFFSET -0.73152 -45.1104 -5.12064
          CHANNELS 3 Zrotation Xrotation Yrotation
          End Site
          {
            OFFSET 1.1221 -3.69964 12.103
          }
        }
      }
    }
  }
}
MOTION
Frames:	4
Frame Time:	0.03333
-0.0015715137124061584 61.09987497329712 0.16206735745072365 -2.9209542274475098 1.5830575227737427 5.902046203613281 -2.194871187210083 13.350418090820312 4.084625244140625 2.866438865661621 -9.247955322265625 1.34431791305542 -5.4954657554626465 14.432055473327637 -4.360385417938232 8.789795875549316 -24.65056800842285 -6.306158542633057 -0.001689642434939742 0.008037648163735867 -0.04214731603860855 -0.004585742484778166 -0.03318136930465698 0.04318734630942345 -0.054629988968372345 0.054113879799842834 -0.017274150624871254 52.41681671142578 39.46284866333008 10.948399543762207 -28.027803421020508 -32.24203109741211 70.76234436035156 -0.08123882859945297 0.8448737263679504 0.10186989605426788 0.08659300953149796 0.009610123001039028 -0.04138108715415001 0.041858475655317307 0.07851990312337875 -0.020308105275034904 -0.05252009257674217 0.04015856981277466 -0.0005000170203857124 7.72633695602417 5.42314338684082 0.4434632658958435 0.027013108134269714 0.026734111830592155 0.045564498752355576 2.962430238723755 0.9899352788925171 0.07130689173936844 0.02937314473092556 -0.0030293550807982683 -0.032682158052921295 10.344256401062012 0.7863907217979431 0.04205148294568062 0.01924367994070053 0.015714401379227638 -0.010644692927598953 2.1404104232788086 -0.6461354494094849 -0.2947511374950409 -0.02284945547580719 0.07921285182237625 -0.007089171092957258 -58.328163146972656 38.485958099365234 -22.775941848754883 28.493989944458008 -34.3025016784668 -74.01786041259766 0.3653202950954437 -16.788549423217773 2.5276291370391846 0.01703026331961155 -0.004470657091587782 -0.040609411895275116 0.09600543975830078 0.06623750925064087 0.04856269061565399 0.0012432517250999808 -0.06653853505849838 0.07363779097795486 -7.7485032081604 5.533094882965088 -0.3534630239009857 0.03801019862294197 0.031251437962055206 0.017714908346533775 -2.902479648590088 0.9658685326576233 -0.2138192057609558 0.09819360822439194 0.07454794645309448 -0.07062355428934097 -10.179510116577148 0.7489154934883118 0.031135063618421555 -0.014225001446902752 -0.01753401942551136 0.004031841643154621 -2.1561710834503174 -0.694890022277832 0.19194750487804413 -0.054516732692718506 0.027415219694375992 -0.035224296152591705 -27.29798126220703 -44.32103729248047 -23.039430618286133 -1.7001348733901978 67.13011932373047 2.283513307571411 -4.4025726318359375 -13.232135772705078 -12.304049491882324 0.022196508944034576 0.00749938515946269 -0.07012461870908737 37.48406982421875 -45.95891189575195 30.169042587280273 2.118332624435425 69.79541778564453 -2.859462261199951 4.4082841873168945 -11.560214042663574 14.064119338989258
0.07849913090467453 62.72034049034119 0.2325328066945076 -3.5724363327026367 0.1803366094827652 5.994949817657471 -1.7342811822891235 12.730012893676758 4.030307769775391 2.911243200302124 -9.194814682006836 1.3044692277908325 -5.320462703704834 14.393440246582031 -4.189964771270752 8.503188133239746 -24.9371395111084 -6.046774387359619 0.03481687232851982 0.0274277925491333 0.026439517736434937 0.08302120119333267 -0.02047504484653473 0.013113358058035374 -0.084981270134449 0.07085029035806656 -0.017294880002737045 53.97842788696289 40.1480712890625 10.382330894470215 -28.129865646362305 -32.587955474853516 71.16012573242188 -0.4370814859867096 0.03329566866159439 0.055627066642045975 -0.044654712080955505 0.021180251613259315 -0.028440702706575394 0.01695224456489086 -0.02023555338382721 -0.041933465749025345 -0.030307773500680923 0.0315353088080883 0.039479997009038925 7.687596321105957 5.392936706542969 0.45040014386177063 -0.020095331594347954 -0.045139580965042114 0.07811494916677475 2.869591236114502 0.9242566823959351 0.09978009760379791 0.057767968624830246 -0.00477267149835825 0.026139358058571815 10.318514823913574 0.7881032824516296 0.08783707767724991 -0.07588594406843185 -0.04540739580988884 0.006416164338588715 2.151679039001465 -0.6628697514533997 -0.23012526333332062 0.010476727038621902 0.110269695520401 0.014761915430426598 -59.49834060668945 39.44011306762695 -22.840251922607422 28.587480545043945 -34.9061393737793 -74.83097839355469 0.3377370536327362 -16.235010147094727 2.6043002605438232 -0.03384970501065254 0.0063967350870370865 0.0687871128320694 0.005974652245640755 0.02082039602100849 0.009613997302949429 0.0425340011715889 -0.023480823263525963 0.03510298579931259 -7.733543872833252 5.585330963134766 -0.3683761954307556 0.054450396448373795 -0.003913065884262323 0.03405770659446716 -2.95873761177063 1.0018941164016724 -0.18138107657432556 0.04516725614666939 -0.018275413662195206 -0.01279881875962019 -10.253201484680176 0.6570504307746887 -0.028096098452806473 -0.06309697777032852 -0.014406139962375164 0.0398579016327858 -2.1827399730682373 -0.7316744923591614 0.22320245206356049 -0.08590377867221832 0.07775245606899261 -0.05477007478475571 -25.455406188964844 -42.824249267578125 -22.054790496826172 -1.923405408859253 67.54415893554688 2.597493886947632 -4.35653018951416 -14.156397819519043 -12.113688468933105 0.09753391891717911 0.017526598647236824 -0.02391117997467518 40.13927459716797 -47.76131820678711 33.12066650390625 2.2429118156433105 70.10709381103516 -2.8913662433624268 4.016749858856201 -10.650115013122559 13.92715072631836
0.12933611869812012 62.923043966293335 0.30596647411584854 -15.68472671508789 -25.102413177490234 13.054327964782715 12.278440475463867 7.305513858795166 10.274303436279297 -1.0589096546173096 -7.50067663192749 2.8378381729125977 -2.2723822593688965 13.377100944519043 1.8373256921768188 6.216893196105957 -24.088607788085938 4.065173625946045 0.04209614172577858 0.016106029972434044 -0.001876331283710897 -0.05081840977072716 -0.0006348961032927036 -0.03384500741958618 -0.022354157641530037 0.03462117910385132 -0.024745497852563858 77.03790283203125 48.801700592041016 -18.581993103027344 -28.431127548217773 -36.6583137512207 78.09196472167969 -0.22501346468925476 9.117715835571289 1.4306401014328003 -0.0010949441930279136 0.009950833395123482 -0.007805875968188047 0.038908928632736206 -0.02941231243312359 0.0068748993799090385 0.03446664661169052 0.04607948660850525 -0.05360295623540878 7.698564529418945 5.485103130340576 0.40956127643585205 0.032831259071826935 0.03332291543483734 0.05744018778204918 2.8761987686157227 1.0019843578338623 0.07944342494010925 0.02863992564380169 -0.004376567900180817 0.03574125096201897 10.26884937286377 0.710885763168335 -0.0018899530405178666 0.01904601976275444 -0.045249417424201965 -0.0022288633044809103 2.169924259185791 -0.6956436634063721 -0.23630653321743011 -0.04800724610686302 0.09005069732666016 0.04861811175942421 -52.443824768066406 31.707597732543945 -30.126201629638672 28.585500717163086 -36.1429443359375 -77.03531646728516 0.931148886680603 -25.427122116088867 3.8764169216156006 -0.007300734054297209 -0.04787183180451393 0.0901106745004654 -0.03350302204489708 -0.02453257143497467 -0.0036983827594667673 0.016335446387529373 0.00010610808385536075 -0.0437365360558033 -7.772061347961426 5.539981365203857 -0.43041032552719116 0.07388154417276382 0.037003591656684875 0.009460140019655228 -2.941235303878784 0.8846167922019958 -0.17528940737247467 0.01926557905972004 0.02257499098777771 -0.06238119676709175 -10.250116348266602 0.7066205143928528 -0.06687426567077637 0.0003748664166778326 0.005112531594932079 -0.02176639623939991 -2.231142520904541 -0.6999436616897583 0.21017277240753174 -0.024933550506830215 -0.047693245112895966 -0.05499298498034477 1.542458415031433 2.683274745941162 -7.07021951675415 -0.2618812024593353 40.86055374145508 1.9261229038238525 -15.560918807983398 -21.508121490478516 -34.00141143798828 0.04473283514380455 -0.0807916522026062 0.018793325871229172 69.15174865722656 -60.00482177734375 58.481380462646484 1.9742515087127686 70.84617614746094 -2.1207730770111084 0.8637630939483643 -1.0442535877227783 1.3269325494766235
0.001291278749704361 64.15849924087524 0.5092293955385685 -15.429018020629883 -24.90903663635254 13.239628791809082 12.198080062866211 7.4152655601501465 10.545538902282715 -1.630124807357788 -7.008674144744873 2.955458402633667 -2.2078638076782227 13.439432144165039 1.7333757877349854 6.524811744689941 -24.498271942138672 4.168506145477295 -0.002540519228205085 -0.004220498725771904 -0.023700110614299774 -0.04019105061888695 -0.04061153531074524 -0.01498719397932291 -0.007943360134959221 -7.999351510079578e-05 0.015124385245144367 76.8055191040039 48.521846771240234 -18.41263771057129 -28.414762496948242 -37.002254486083984 78.78720092773438 -0.13809362053871155 10.2423095703125 1.4533334970474243 0.04478410258889198 0.01712597720324993 -0.035556863993406296 -0.02059137634932995 -0.04298899695277214 0.024240976199507713 0.04688326269388199 0.005567899439483881 -0.07146566361188889 7.728962421417236 5.5562520027160645 0.41273239254951477 0.06180156394839287 0.07257610559463501 0.032425519078969955 2.9245190620422363 1.038071632385254 0.10941904038190842 0.04512057080864906 0.07923173904418945 0.005534548778086901 10.219172477722168 0.7150663137435913 0.031133651733398438 -0.017738133668899536 -0.06656482070684433 -0.03687003254890442 2.143371105194092 -0.7407792806625366 -0.17448964715003967 -0.052797455340623856 0.07941106706857681 -0.012363440357148647 -52.159873962402344 30.61211585998535 -30.671308517456055 28.48387908935547 -36.62115478515625 -77.94904327392578 1.0375375747680664 -25.235963821411133 3.8523714542388916 0.041822489351034164 -0.01882614754140377 0.03590152785181999 -0.016466449946165085 -0.039690546691417694 -0.04487119987607002 -0.07555566728115082 0.013778140768408775 -0.08190695941448212 -7.776577472686768 5.5103888511657715 -0.46893927454948425 0.07941446453332901 -0.010400320403277874 -0.0552670955657959 -2.89387583732605 0.8645474314689636 -0.16480283439159393 0.0752621442079544 0.02115250565111637 -0.048483189195394516 -10.255023956298828 0.7194672226905823 -0.030120646581053734 -0.0482097826898098 -0.04907446354627609 -0.04406845569610596 -2.226716995239258 -0.680665135383606 0.19334730505943298 -0.03328363224864006 -0.024446986615657806 -0.011766181327402592 1.9471676349639893 2.088254451751709 -6.5205078125 -0.176646888256073 39.923492431640625 1.8507709503173828 -16.696413040161133 -21.732824325561523 -33.790714263916016 0.038763031363487244 -0.11127927899360657 0.06371656805276871 67.74213409423828 -59.76954650878906 56.95572280883789 2.1307482719421387 70.22692108154297 -2.1482760906219482 1.035316824913025 -1.827172040939331 1.3807685375213623
